<svg data-name="Mask Group 647" xmlns="http://www.w3.org/2000/svg" width="1196" height="233" viewBox="0 0 1196 233">
    <defs>
        <clipPath id="mg789dkw6a">
            <path data-name="Rectangle 12111" transform="translate(-8490 11521)" style="fill:#fff;stroke:#707070" d="M0 0h1196v233H0z"/>
        </clipPath>
    </defs>
    <g data-name="Mask Group 647" transform="translate(8490 -11521)" style="clip-path:url(#mg789dkw6a)">
        <g data-name="Group 10122" transform="translate(-8490 11490.962)">
            <path data-name="Rectangle 12095" transform="translate(557.073 387.002)" style="fill:#f393d8" d="M0 0h294.56v107.312H0z"/>
            <circle data-name="Ellipse 728" cx="70.036" cy="70.036" r="70.036" transform="translate(1055.929 8.795)" style="fill:#f393d8"/>
            <path data-name="Rectangle 12096" d="M69.507 0h14.177a69.506 69.506 0 0 1 69.506 69.506v149.215H0V69.507A69.507 69.507 0 0 1 69.507 0z" transform="translate(611.074 30.804)" style="fill:#59c6d8"/>
            <g data-name="Ellipse 729" transform="rotate(-90 712.758 -6.348)" style="stroke:#3650e9;stroke-width:36px;fill:none">
                <circle cx="110.991" cy="110.991" r="110.991" style="stroke:none"/>
                <circle cx="110.991" cy="110.991" r="92.991" style="fill:none"/>
            </g>
            <rect data-name="Rectangle 12097" width="291.522" height="56.829" rx="22.939" transform="translate(162.151 8.795)" style="fill:#f28d00"/>
            <path data-name="Rectangle 12098" transform="translate(21.765 228.297)" style="fill:#f6d400" d="M0 0h206.535v206.535H0z"/>
            <path data-name="Rectangle 12099" d="M86.952 0h17.735a86.952 86.952 0 0 1 86.952 86.952v188.594H0V86.952A86.952 86.952 0 0 1 86.952 0z" transform="translate(104.961 352.596)" style="fill:#f393d8"/>
            <path data-name="Path 29236" d="M312.09 461.056H197.773v-38.721a57.16 57.16 0 0 1 57.16-57.16 57.159 57.159 0 0 1 57.158 57.159z" transform="translate(123.489 95.962)" style="fill:#3650e9"/>
            <path data-name="Path 29237" d="M124.43 65.862H55.515v68.915h68.915v68.915h68.915v68.915h68.915V65.862z" transform="translate(35.017 24.516)" style="fill:#3650e9"/>
            <g data-name="Group 10119">
                <path data-name="Path 29238" d="M197.786 94.64a57.142 57.142 0 0 0 57.143 57.142V37.5a57.142 57.142 0 0 0-57.143 57.142z" transform="translate(123.494 17.745)" style="fill:#ee27a4"/>
                <path data-name="Path 29239" d="M243.917 37.5v114.283a57.142 57.142 0 1 0 0-114.283z" transform="translate(134.506 17.745)" style="fill:#59c6d8"/>
            </g>
            <path data-name="Path 29240" d="M127.063 476.042H-17.571v-83.093h144.634a41.545 41.545 0 0 1 41.546 41.551 41.546 41.546 0 0 1-41.546 41.546z" transform="translate(17.571 102.591)" style="fill:#ee27a4"/>
            <path data-name="Rectangle 12100" transform="rotate(45 -407.06 709.15)" style="fill:#ee27a4" d="M0 0h22.465v22.465H0z"/>
            <path data-name="Rectangle 12101" transform="rotate(45 -500.668 747.923)" style="fill:#ee27a4" d="M0 0h22.465v22.465H0z"/>
            <path data-name="Path 29241" d="M472.847 178.444a111.078 111.078 0 1 1 222.156 0z" transform="translate(273.175 24.874)" style="fill:#f6d400"/>
            <path data-name="Path 29242" d="M595.755 421.9a77.685 77.685 0 1 1 0-155.37z" transform="translate(276.409 72.414)" style="fill:#f6d400"/>
            <path data-name="Path 29243" d="M658.474 421.9a77.685 77.685 0 1 1 0-155.37z" transform="translate(537.529 -53.813)" style="fill:#f28d00"/>
            <path data-name="Path 29244" d="m277.917-7.1 138.035 138.035L553.979-7.1z" transform="translate(176.711 7.1)" style="stroke:#000;fill:none"/>
            <path data-name="Rectangle 12102" transform="translate(459.566 90.379)" style="fill:#f6d400" d="M0 0h138.862v35.427H0z"/>
            <path data-name="Rectangle 12103" transform="translate(1015.14 122.928)" style="fill:#59c6d8" d="M0 0h138.862v35.427H0z"/>
            <path data-name="Rectangle 12104" transform="translate(666.36 484.429)" style="fill:#3650e9" d="M0 0h138.862v35.427H0z"/>
            <path data-name="Rectangle 12105" transform="translate(1031.078 407.655)" style="fill:#59c6d8" d="M0 0h164.921v220.489H0z"/>
            <g data-name="Group 10120" transform="translate(860.461 39.444)">
                <circle data-name="Ellipse 730" cx="13.427" cy="13.427" r="13.427" transform="rotate(-80.783 16.014 13.624)" style="fill:#3650e9"/>
                <circle data-name="Ellipse 731" cx="13.427" cy="13.427" r="13.427" transform="rotate(-80.783 54.49 -31.6)" style="fill:#3650e9"/>
                <circle data-name="Ellipse 732" cx="13.427" cy="13.427" r="13.427" transform="rotate(-76.7 93.093 -83.73)" style="fill:#3650e9"/>
            </g>
            <rect data-name="Rectangle 12106" width="110.427" height="301.734" rx="44.574" transform="translate(14.606 37.209)" style="stroke:#000;fill:none"/>
            <path data-name="Path 29245" d="M783.638 454.483a111.078 111.078 0 0 1 0-222.157z" transform="translate(356.472 64.251)" style="stroke:#000;fill:none"/>
            <circle data-name="Ellipse 733" cx="36.877" cy="36.877" r="36.877" transform="rotate(-45 611.345 -146.173)" style="stroke:#000;fill:none"/>
            <path data-name="Line 1049" transform="translate(413.106 532.842)" style="stroke:#000;fill:none" d="M0 111.259 111.259 0"/>
            <path data-name="Line 1050" transform="translate(1048.64 182.562)" style="stroke:#000;fill:none" d="M0 91.469 91.469 0"/>
            <circle data-name="Ellipse 734" cx="7.006" cy="7.006" r="7.006" transform="translate(60.522 530.08)" style="stroke:#000;fill:none"/>
            <circle data-name="Ellipse 735" cx="7.006" cy="7.006" r="7.006" transform="translate(120.983 530.08)" style="stroke:#000;fill:none"/>
            <g data-name="Group 10121">
                <path data-name="Path 29246" d="M538.079 254.41h179.576l-89.789-89.789z" transform="translate(300.304 48.09)" style="fill:#f393d8"/>
                <path data-name="Path 29247" d="m610.565 181.928 89.788 89.792V92.14z" transform="translate(317.607 30.788)" style="fill:#ee27a4"/>
            </g>
            <path data-name="Rectangle 12107" transform="rotate(45 6.313 641.732)" style="stroke:#000;fill:none" d="M0 0h22.465v22.465H0z"/>
            <path data-name="Rectangle 12108" transform="rotate(45 53.717 756.175)" style="stroke:#000;fill:none" d="M0 0h22.465v22.465H0z"/>
            <path data-name="Rectangle 12109" transform="rotate(45 101.12 870.617)" style="stroke:#000;fill:none" d="M0 0h22.465v22.465H0z"/>
            <path data-name="Rectangle 12110" transform="translate(21.765 8.795)" style="fill:none" d="M0 0h929.023v619.349H0z"/>
        </g>
    </g>
</svg>
